<svg width="27" height="27" viewBox="0 0 27 27" fill="none" xmlns="http://www.w3.org/2000/svg">
<path d="M18.5981 13.6513C18.5981 13.9631 18.4788 14.2292 18.2312 14.4677L11.0762 21.4666C10.8836 21.6684 10.6268 21.7693 10.3332 21.7693C9.73699 21.7693 9.26916 21.3107 9.26916 20.7053C9.26916 20.4117 9.38841 20.1457 9.59022 19.9439L16.0388 13.6513L9.59022 7.3586C9.38841 7.14762 9.26916 6.8816 9.26916 6.58807C9.26916 5.99182 9.73699 5.53317 10.3332 5.53317C10.6268 5.53317 10.8836 5.63408 11.0762 5.83588L18.2312 12.8349C18.4788 13.0734 18.5889 13.3394 18.5981 13.6513Z" fill="black"/>
</svg>
