<svg width="21" height="20" viewBox="0 0 21 20" fill="none" xmlns="http://www.w3.org/2000/svg">
<g clip-path="url(#clip0_1_1434)">
<path d="M14.4436 11.2809L10.8816 14.8895C10.6325 15.1419 10.229 15.1419 9.97987 14.8895L6.41783 11.2809C6.01597 10.8741 6.30103 10.1782 6.8687 10.1782H9.61395V6.09424C9.61395 5.64337 9.97987 5.27744 10.4307 5.27744C10.8816 5.27744 11.2475 5.64337 11.2475 6.09424V10.1782H13.9928C14.5604 10.1782 14.8455 10.8741 14.4436 11.2809ZM20.2323 10.1782C20.2323 15.5829 15.8355 19.9797 10.4307 19.9797C5.02601 19.9797 0.629211 15.5829 0.629211 10.1782C0.629211 4.77348 5.02601 0.376678 10.4307 0.376678C15.8355 0.376678 20.2323 4.77348 20.2323 10.1782ZM18.5987 10.1782C18.5987 5.6744 14.9345 2.01027 10.4307 2.01027C5.92694 2.01027 2.2628 5.6744 2.2628 10.1782C2.2628 14.682 5.92694 18.3461 10.4307 18.3461C14.9345 18.3461 18.5987 14.682 18.5987 10.1782Z" fill="#787381"/>
</g>
<defs>
<clipPath id="clip0_1_1434">
<rect width="19.6031" height="19.6031" fill="white" transform="translate(0.629211 0.376678)"/>
</clipPath>
</defs>
</svg>
