<svg width="28" height="27" viewBox="0 0 28 27" fill="none" xmlns="http://www.w3.org/2000/svg">
<g clip-path="url(#clip0_1_1242)">
<path d="M23.8717 17.5318L22.6268 15.5214C22.1811 14.8026 21.947 13.9803 21.947 13.1428V10.2819C21.947 6.23498 18.5409 2.94168 14.3548 2.94168C10.1687 2.94168 6.76265 6.23389 6.76265 10.2819V13.1428C6.76265 13.9803 6.5274 14.8026 6.08279 15.5214L4.83789 17.5318C4.40454 18.2299 4.39441 19.0706 4.80863 19.7785C5.22397 20.4886 5.97473 20.9122 6.8178 20.9122H11.2977C11.2887 21.0037 11.2605 21.0919 11.2605 21.1845C11.2605 22.8366 12.6484 24.1794 14.3559 24.1794C16.0635 24.1794 17.4513 22.8366 17.4513 21.1845C17.4513 21.0919 17.4232 21.0037 17.4142 20.9122H21.8941C22.7371 20.9122 23.489 20.4885 23.9032 19.7795C24.3163 19.0706 24.3051 18.2299 23.8717 17.5318ZM15.7607 21.1845C15.7607 21.9348 15.1292 22.5458 14.3537 22.5458C13.5781 22.5458 12.9467 21.9348 12.9467 21.1845C12.9467 21.0919 12.9647 21.0015 12.9838 20.9122H15.7235C15.7427 21.0015 15.7607 21.0919 15.7607 21.1845ZM22.4321 18.9737C22.3781 19.0651 22.2194 19.2776 21.8918 19.2776H6.81555C6.48913 19.2776 6.3293 19.0651 6.27527 18.9737C6.22237 18.8822 6.11544 18.6415 6.28316 18.3714L7.52807 16.3611C8.13139 15.3886 8.4488 14.2755 8.4488 13.1428V10.2819C8.4488 7.13563 11.0973 4.57527 14.3525 4.57527C17.6078 4.57527 20.2563 7.13563 20.2563 10.2819V13.1428C20.2563 14.2755 20.5748 15.3886 21.177 16.3611L22.422 18.3714C22.5908 18.6415 22.485 18.8822 22.4321 18.9737Z" fill="white"/>
<path d="M19.4206 9.74829C21.8801 9.74829 23.9048 7.81474 23.9048 5.39206C23.9048 2.96938 21.8801 1.03582 19.4206 1.03582C16.9612 1.03582 14.9365 2.96938 14.9365 5.39206C14.9365 7.81474 16.9612 9.74829 19.4206 9.74829Z" fill="#F56565" stroke="#2C8BFD" stroke-width="1.08906"/>
</g>
<defs>
<clipPath id="clip0_1_1242">
<rect width="27.0143" height="26.1374" fill="white" transform="translate(0.848328 0.491302)"/>
</clipPath>
</defs>
</svg>
