<svg width="16" height="16" viewBox="0 0 16 16" fill="none" xmlns="http://www.w3.org/2000/svg">
<path d="M8.18805 15.4578C6.69266 15.4578 5.23084 15.0144 3.98747 14.1836C2.74409 13.3528 1.775 12.1719 1.20274 10.7904C0.630473 9.40882 0.480743 7.88859 0.77248 6.42192C1.06422 4.95526 1.78432 3.60805 2.84172 2.55065C3.89913 1.49324 5.24634 0.773141 6.713 0.481404C8.17966 0.189667 9.6999 0.339397 11.0815 0.911659C12.463 1.48392 13.6439 2.45301 14.4747 3.69639C15.3055 4.93977 15.7489 6.40158 15.7489 7.89697C15.7467 9.90157 14.9494 11.8234 13.532 13.2409C12.1145 14.6584 10.1926 15.4557 8.18805 15.4578V15.4578ZM8.18805 1.59627C6.94189 1.59627 5.72371 1.9658 4.68756 2.65813C3.65142 3.35046 2.84384 4.33449 2.36696 5.4858C1.89007 6.6371 1.76529 7.90396 2.00841 9.12618C2.25152 10.3484 2.85161 11.4711 3.73278 12.3522C4.61395 13.2334 5.73663 13.8335 6.95884 14.0766C8.18106 14.3197 9.44792 14.195 10.5992 13.7181C11.7505 13.2412 12.7346 12.4336 13.4269 11.3975C14.1192 10.3613 14.4888 9.14314 14.4888 7.89697C14.4869 6.22648 13.8225 4.62494 12.6413 3.44373C11.4601 2.26251 9.85854 1.5981 8.18805 1.59627V1.59627Z" fill="#787381"/>
<path d="M8.81789 9.78694H7.55775V9.3188C7.54844 8.87423 7.65829 8.43528 7.87589 8.0475C8.09349 7.65972 8.41091 7.33724 8.79521 7.11355C9.028 6.98533 9.2143 6.78679 9.32746 6.54632C9.44062 6.30584 9.47486 6.03575 9.42528 5.77465C9.37618 5.5259 9.25405 5.29743 9.07448 5.11842C8.89492 4.93942 8.66607 4.818 8.41716 4.76968C8.23553 4.73606 8.04872 4.74279 7.86997 4.78938C7.69123 4.83597 7.5249 4.92129 7.38279 5.0393C7.24068 5.15731 7.12625 5.30512 7.0476 5.47226C6.96895 5.6394 6.92801 5.82179 6.92768 6.00651H5.66754C5.6677 5.562 5.78542 5.12544 6.00876 4.74111C6.2321 4.35678 6.55311 4.03836 6.93924 3.81814C7.32537 3.59793 7.76287 3.48375 8.20737 3.4872C8.65186 3.49064 9.08754 3.61159 9.4702 3.83777C9.85287 4.06395 10.1689 4.38732 10.3863 4.77506C10.6036 5.16281 10.7145 5.60115 10.7078 6.0456C10.7011 6.49006 10.5769 6.92484 10.3479 7.30582C10.1189 7.6868 9.7932 8.00043 9.40385 8.21491C9.21782 8.33122 9.06571 8.49449 8.96285 8.68828C8.85998 8.88207 8.80998 9.09954 8.81789 9.3188V9.78694Z" fill="#787381"/>
<path d="M8.81795 11.0471H7.5578V12.3073H8.81795V11.0471Z" fill="#787381"/>
</svg>
