<svg width="21" height="21" viewBox="0 0 21 21" fill="none" xmlns="http://www.w3.org/2000/svg">
<g clip-path="url(#clip0_259_47)">
<path d="M12.0026 1.66034C12.0026 0.984036 12.5514 0.43515 13.2278 0.43515C13.9041 0.43515 14.4529 0.984036 14.4529 1.66034C14.4529 2.33665 13.9041 2.88553 13.2278 2.88553C12.5514 2.88553 12.0026 2.33665 12.0026 1.66034ZM18.9453 4.51912C18.269 4.51912 17.7201 5.06801 17.7201 5.74431C17.7201 6.42062 18.269 6.9695 18.9453 6.9695C19.6216 6.9695 20.1705 6.42062 20.1705 5.74431C20.1705 5.06801 19.6216 4.51912 18.9453 4.51912ZM15.1333 6.9695L18.9453 0.43515H17.0397L13.2278 6.9695H15.1333ZM19.3537 10.6451V17.1794C19.3537 18.8089 17.2464 20.0382 14.4529 20.0382C12.696 20.0382 11.2119 19.5514 10.351 18.7852C9.35696 19.6102 7.61229 20.0382 5.8766 20.0382C3.23836 20.0382 0.567444 19.0564 0.567444 17.1794V4.11072C0.567444 2.23373 3.23836 1.25194 5.8766 1.25194C8.51485 1.25194 11.1858 2.23373 11.1858 4.11072V8.48302C12.0409 8.04685 13.173 7.7863 14.4529 7.7863C17.2464 7.7863 19.3537 9.01557 19.3537 10.6451ZM2.20103 4.11072C2.20103 4.46685 3.48912 5.33591 5.8766 5.33591C8.26409 5.33591 9.55218 4.46685 9.55218 4.11072C9.55218 3.7546 8.26409 2.88553 5.8766 2.88553C3.48912 2.88553 2.20103 3.7546 2.20103 4.11072ZM2.20103 7.3779C2.20103 7.73402 3.48912 8.60309 5.8766 8.60309C8.26409 8.60309 9.55218 7.73402 9.55218 7.3779V6.22704C8.55079 6.71793 7.21043 6.9695 5.8766 6.9695C4.54278 6.9695 3.20242 6.71793 2.20103 6.22704V7.3779ZM2.20103 10.6451C2.20103 11.0012 3.48912 11.8703 5.8766 11.8703C8.26409 11.8703 9.55218 11.0012 9.55218 10.6451V9.49421C8.55079 9.98511 7.21043 10.2367 5.8766 10.2367C4.54278 10.2367 3.20242 9.98511 2.20103 9.49421V10.6451ZM2.20103 13.9123C2.20103 14.2684 3.48912 15.1374 5.8766 15.1374C8.26409 15.1374 9.55218 14.2684 9.55218 13.9123V12.7614C8.55079 13.2523 7.21043 13.5039 5.8766 13.5039C4.54278 13.5039 3.20242 13.2523 2.20103 12.7614V13.9123ZM9.55218 17.1794V16.0286C8.55079 16.5195 7.21043 16.771 5.8766 16.771C4.54278 16.771 3.20242 16.5195 2.20103 16.0286V17.1794C2.20103 17.5355 3.48912 18.4046 5.8766 18.4046C8.26409 18.4046 9.55218 17.5355 9.55218 17.1794ZM17.7201 17.1794V16.0743C16.8649 16.5105 15.7329 16.771 14.4529 16.771C13.173 16.771 12.0409 16.5105 11.1858 16.0743V17.1794C11.1858 17.6115 12.4265 18.4046 14.4529 18.4046C16.4794 18.4046 17.7201 17.6115 17.7201 17.1794ZM17.7201 13.9123V12.8071C16.8649 13.2433 15.7329 13.5039 14.4529 13.5039C13.173 13.5039 12.0409 13.2433 11.1858 12.8071V13.9123C11.1858 14.3443 12.4265 15.1374 14.4529 15.1374C16.4794 15.1374 17.7201 14.3443 17.7201 13.9123ZM17.7201 10.6451C17.7201 10.213 16.4794 9.41988 14.4529 9.41988C12.4265 9.41988 11.1858 10.213 11.1858 10.6451C11.1858 11.0772 12.4265 11.8703 14.4529 11.8703C16.4794 11.8703 17.7201 11.0772 17.7201 10.6451Z" fill="#2C8BFD"/>
</g>
<defs>
<clipPath id="clip0_259_47">
<rect width="19.6031" height="19.6031" fill="white" transform="translate(0.567444 0.43515)"/>
</clipPath>
</defs>
</svg>
