<svg width="21" height="21" viewBox="0 0 21 21" fill="none" xmlns="http://www.w3.org/2000/svg">
<g clip-path="url(#clip0_259_34)">
<path d="M18.1425 6.15271H15.5827C16.1488 5.63656 16.5974 5.00479 16.8981 4.30019C17.1989 3.59559 17.3447 2.8346 17.3257 2.06874H15.6921C15.6921 4.42192 14.0822 5.58667 12.3008 5.98935C12.8357 5.03517 13.1568 3.97611 13.2417 2.88553C13.2417 2.23565 12.9836 1.61239 12.524 1.15285C12.0645 0.693315 11.4412 0.43515 10.7914 0.43515C10.1415 0.43515 9.51822 0.693315 9.05868 1.15285C8.59915 1.61239 8.34098 2.23565 8.34098 2.88553C8.42597 3.97611 8.74703 5.03517 9.28193 5.98935C7.5005 5.58667 5.8906 4.42192 5.8906 2.06874H4.25701C4.23806 2.8346 4.38388 3.59559 4.6846 4.30019C4.98533 5.00479 5.43393 5.63656 6.00005 6.15271H3.44022C2.79034 6.15271 2.16707 6.41087 1.70754 6.87041C1.248 7.32994 0.989838 7.95321 0.989838 8.60309L0.989838 11.8703H2.62343V20.0382H18.9593V11.8703H20.5929V8.60309C20.5929 7.95321 20.3347 7.32994 19.8752 6.87041C19.4157 6.41087 18.7924 6.15271 18.1425 6.15271ZM10.7914 2.06874C11.008 2.06874 11.2157 2.15479 11.3689 2.30797C11.5221 2.46115 11.6082 2.6689 11.6082 2.88553C11.5096 3.75364 11.2314 4.59174 10.7914 5.34653C10.3513 4.59174 10.0732 3.75364 9.97457 2.88553C9.97457 2.6689 10.0606 2.46115 10.2138 2.30797C10.367 2.15479 10.5747 2.06874 10.7914 2.06874ZM2.62343 8.60309C2.62343 8.38646 2.70948 8.17871 2.86266 8.02553C3.01584 7.87235 3.22359 7.7863 3.44022 7.7863H9.97457V10.2367H2.62343V8.60309ZM4.25701 11.8703H9.97457V18.4046H4.25701V11.8703ZM17.3257 18.4046H11.6082V11.8703H17.3257V18.4046ZM18.9593 10.2367H11.6082V7.7863H18.1425C18.3591 7.7863 18.5669 7.87235 18.7201 8.02553C18.8733 8.17871 18.9593 8.38646 18.9593 8.60309V10.2367Z" fill="#2C8BFD"/>
</g>
<defs>
<clipPath id="clip0_259_34">
<rect width="19.6031" height="19.6031" fill="white" transform="translate(0.989838 0.43515)"/>
</clipPath>
</defs>
</svg>
