<svg width="23" height="20" viewBox="0 0 23 20" fill="none" xmlns="http://www.w3.org/2000/svg">
<path d="M22.2496 9.36615C21.3728 7.46457 20.0885 5.77908 18.4878 4.42908L21.2395 1.67739L19.9553 0.392303L16.9667 3.37814C15.3126 2.42133 13.4323 1.92524 11.5215 1.94149C4.71484 1.94149 1.59014 7.62365 0.793316 9.36615C0.686351 9.59966 0.630981 9.85349 0.630981 10.1103C0.630981 10.3672 0.686351 10.621 0.793316 10.8545C1.67013 12.7561 2.95439 14.4416 4.55511 15.7916L1.80433 18.5433L3.0876 19.8266L6.07616 16.8407C7.73029 17.7975 9.6106 18.2936 11.5215 18.2774C18.3281 18.2774 21.4528 12.5952 22.2496 10.8527C22.3563 10.6195 22.4116 10.3659 22.4116 10.1094C22.4116 9.85291 22.3563 9.5994 22.2496 9.36615V9.36615ZM2.44596 10.1194C3.12662 8.62649 5.79754 3.75659 11.5215 3.75659C12.9459 3.74826 14.3518 4.08058 15.6218 4.72585L14.0199 6.32767C13.1486 5.7492 12.104 5.49 11.0634 5.59405C10.0227 5.6981 9.05007 6.15899 8.31055 6.89852C7.57102 7.63805 7.11013 8.61066 7.00608 9.65133C6.90202 10.692 7.16123 11.7366 7.7397 12.6079L5.8529 14.4947C4.40116 13.3125 3.23632 11.8166 2.44596 10.1194V10.1194ZM14.2441 10.1094C14.2441 10.8315 13.9573 11.524 13.4467 12.0346C12.9361 12.5452 12.2435 12.8321 11.5215 12.8321C11.1172 12.8305 10.7185 12.7374 10.3553 12.5598L13.9718 8.94323C14.1495 9.30643 14.2425 9.70513 14.2441 10.1094V10.1094ZM8.79881 10.1094C8.79881 9.38734 9.08565 8.69482 9.59625 8.18423C10.1068 7.67363 10.7994 7.38678 11.5215 7.38678C11.9258 7.38835 12.3245 7.48143 12.6877 7.65905L9.07107 11.2756C8.89345 10.9124 8.80037 10.5137 8.79881 10.1094ZM11.5215 16.4623C10.097 16.4706 8.69113 16.1383 7.42115 15.493L9.02297 13.8912C9.89428 14.4697 10.9389 14.7289 11.9796 14.6248C13.0202 14.5208 13.9928 14.0599 14.7324 13.3203C15.4719 12.5808 15.9328 11.6082 16.0368 10.5675C16.1409 9.52687 15.8817 8.48225 15.3032 7.61095L17.1891 5.72506C18.6437 6.90833 19.8092 8.40783 20.5969 10.1094C19.9036 11.6132 17.2318 16.4623 11.5215 16.4623Z" fill="#787381"/>
</svg>
