<svg width="20" height="20" viewBox="0 0 20 20" fill="none" xmlns="http://www.w3.org/2000/svg">
<g clip-path="url(#clip0_1_1424)">
<path d="M19.2447 7.78366L13.0493 1.58746C12.2825 0.822935 11.2439 0.393616 10.1611 0.393616C9.0783 0.393616 8.03968 0.822935 7.27291 1.58746L1.07753 7.78366C0.849175 8.01055 0.668128 8.28052 0.544884 8.5779C0.42164 8.87528 0.358651 9.19417 0.359568 9.51608V17.5345C0.359568 18.1844 0.617732 18.8077 1.07727 19.2672C1.5368 19.7268 2.16007 19.9849 2.80995 19.9849H17.5122C18.1621 19.9849 18.7854 19.7268 19.2449 19.2672C19.7045 18.8077 19.9626 18.1844 19.9626 17.5345V9.51608C19.9635 9.19417 19.9006 8.87528 19.7773 8.5779C19.6541 8.28052 19.473 8.01055 19.2447 7.78366ZM12.6115 18.3513H7.71071V15.1381C7.71071 14.4882 7.96888 13.8649 8.42841 13.4054C8.88795 12.9459 9.51122 12.6877 10.1611 12.6877C10.811 12.6877 11.4342 12.9459 11.8938 13.4054C12.3533 13.8649 12.6115 14.4882 12.6115 15.1381V18.3513ZM18.329 17.5345C18.329 17.7512 18.243 17.9589 18.0898 18.1121C17.9366 18.2653 17.7289 18.3513 17.5122 18.3513H14.2451V15.1381C14.2451 14.0549 13.8148 13.0162 13.0489 12.2503C12.283 11.4844 11.2442 11.0541 10.1611 11.0541C9.07796 11.0541 8.03919 11.4844 7.27329 12.2503C6.5074 13.0162 6.07713 14.0549 6.07713 15.1381V18.3513H2.80995C2.59332 18.3513 2.38557 18.2653 2.23239 18.1121C2.07921 17.9589 1.99316 17.7512 1.99316 17.5345V9.51608C1.99391 9.29961 2.07989 9.09215 2.23248 8.93861L8.42786 2.74486C8.88829 2.28658 9.51147 2.0293 10.1611 2.0293C10.8107 2.0293 11.4339 2.28658 11.8943 2.74486L18.0897 8.94106C18.2417 9.094 18.3276 9.30046 18.329 9.51608V17.5345Z" fill="#2C8BFD"/>
</g>
<defs>
<clipPath id="clip0_1_1424">
<rect width="19.6031" height="19.6031" fill="white" transform="translate(0.359558 0.376678)"/>
</clipPath>
</defs>
</svg>
