<svg width="21" height="20" viewBox="0 0 21 20" fill="none" xmlns="http://www.w3.org/2000/svg">
<g clip-path="url(#clip0_1_1429)">
<path d="M10.2959 0.376678C8.3573 0.376678 6.46227 0.951528 4.85042 2.02853C3.23857 3.10554 1.98228 4.63633 1.24042 6.42732C0.498571 8.21832 0.304468 10.1891 0.682662 12.0904C1.06086 13.9917 1.99436 15.7382 3.36513 17.1089C4.7359 18.4797 6.48236 19.4132 8.38367 19.7914C10.285 20.1696 12.2557 19.9755 14.0467 19.2336C15.8377 18.4918 17.3685 17.2355 18.4455 15.6236C19.5225 14.0118 20.0974 12.1168 20.0974 10.1782C20.0974 7.57868 19.0647 5.08562 17.2266 3.24748C15.3884 1.40934 12.8954 0.376678 10.2959 0.376678ZM18.4221 9.36141H11.1126V2.05192C12.9862 2.24269 14.7366 3.07409 16.0683 4.40577C17.4 5.73744 18.2314 7.48782 18.4221 9.36141ZM2.12792 10.1782C2.13047 8.15415 2.88348 6.20293 4.24133 4.70191C5.59917 3.20089 7.46538 2.25669 9.47906 2.05192V10.5164L15.4613 16.4986C14.2653 17.4782 12.8158 18.0981 11.2813 18.286C9.74675 18.4739 8.19044 18.2221 6.79347 17.5599C5.39651 16.8977 4.21636 15.8524 3.39039 14.5455C2.56442 13.2387 2.12661 11.7242 2.12792 10.1782ZM16.6162 15.3436L12.2676 10.995H18.4221C18.2628 12.5911 17.6345 14.1042 16.6162 15.3436Z" fill="#787381"/>
</g>
<defs>
<clipPath id="clip0_1_1429">
<rect width="19.6031" height="19.6031" fill="white" transform="translate(0.494324 0.376678)"/>
</clipPath>
</defs>
</svg>
