<svg width="21" height="21" viewBox="0 0 21 21" fill="none" xmlns="http://www.w3.org/2000/svg">
<g clip-path="url(#clip0_259_61)">
<path d="M15.1145 7.37791C15.1145 7.91948 14.8994 8.43886 14.5165 8.82181C14.1335 9.20476 13.6141 9.41989 13.0726 9.41989C12.531 9.41989 12.0116 9.20476 11.6287 8.82181C11.2457 8.43886 11.0306 7.91948 11.0306 7.37791C11.0306 6.83634 11.2457 6.31695 11.6287 5.93401C12.0116 5.55106 12.531 5.33592 13.0726 5.33592C13.6141 5.33592 14.1335 5.55106 14.5165 5.93401C14.8994 6.31695 15.1145 6.83634 15.1145 7.37791ZM15.1096 12.986C15.0648 14.2838 14.7408 15.5567 14.1597 16.7179C13.6243 17.7304 12.8204 18.5759 11.8362 19.1616C10.852 19.7473 9.72543 20.0506 8.58019 20.0382H7.76339V15.5458C7.75974 14.7888 7.45738 14.0638 6.92204 13.5284C6.38671 12.9931 5.66168 12.6907 4.90461 12.6871H0.412246V11.8703C0.399881 10.725 0.703183 9.5985 1.28888 8.61427C1.87458 7.63004 2.72004 6.82614 3.73251 6.29076C4.8938 5.70969 6.16667 5.38569 7.46445 5.34082C8.65439 3.80381 10.1825 2.56171 11.9303 1.71093C13.678 0.86016 15.5983 0.423605 17.5421 0.43516C17.8655 0.433116 18.1862 0.494935 18.4857 0.617073C18.7852 0.739211 19.0576 0.919264 19.2874 1.14691C19.5171 1.37456 19.6997 1.64532 19.8246 1.94367C19.9495 2.24202 20.0143 2.5621 20.0153 2.88554C20.0291 4.83295 19.5937 6.75733 18.7429 8.5091C17.8921 10.2609 16.6488 11.7929 15.1096 12.986ZM2.11444 11.0535H3.96203C4.56862 9.70249 5.28118 8.40164 6.09305 7.16309C5.52914 7.29428 4.98273 7.49168 4.46518 7.75118C3.84273 8.07987 3.3059 8.54976 2.8977 9.12321C2.48949 9.69665 2.22124 10.3577 2.11444 11.0535ZM13.2874 14.3574C12.0488 15.1693 10.748 15.8818 9.39698 16.4884V18.336C10.0927 18.2292 10.7538 17.961 11.3273 17.5528C11.9007 17.1446 12.3706 16.6077 12.6993 15.9853C12.9588 15.4677 13.1562 14.9213 13.2874 14.3574ZM18.3817 2.86267C18.3758 2.65003 18.2871 2.44811 18.1345 2.29984C17.982 2.15157 17.7776 2.06866 17.5649 2.06875C13.3503 2.18882 10.4997 3.80362 7.74869 7.64092C6.98102 8.74621 6.30596 9.91302 5.73039 11.1294C6.62227 11.2955 7.44295 11.7278 8.08444 12.3693C8.72594 13.0108 9.15818 13.8315 9.32429 14.7233C10.5407 14.1478 11.7075 13.4727 12.8128 12.705C16.6468 9.95081 18.2616 7.1002 18.3817 2.86267ZM5.41266 15.0386C5.86906 15.4997 6.12507 16.1223 6.12507 16.771C6.12507 17.4198 5.86906 18.0424 5.41266 18.5035C4.67183 19.2435 2.45423 19.7001 1.53452 19.8626L0.386108 20.0644L0.587857 18.9159C0.751215 17.9962 1.20699 15.7786 1.947 15.0378C2.414 14.5924 3.03463 14.3439 3.67999 14.3441C4.32536 14.3442 4.94587 14.593 5.41266 15.0386ZM4.49622 16.771C4.49651 16.6637 4.4755 16.5574 4.43442 16.4583C4.39334 16.3592 4.333 16.2692 4.2569 16.1936C4.10372 16.0404 3.89601 15.9544 3.67942 15.9544C3.46284 15.9544 3.25512 16.0404 3.10195 16.1936C2.79054 16.7557 2.57183 17.3644 2.45423 17.9962C3.08627 17.8781 3.69521 17.6592 4.25771 17.3477C4.33357 17.2721 4.39371 17.1822 4.43464 17.0832C4.47558 16.9842 4.49651 16.8781 4.49622 16.771Z" fill="#2C8BFD"/>
</g>
<defs>
<clipPath id="clip0_259_61">
<rect width="19.6031" height="19.6031" fill="white" transform="translate(0.412231 0.43515)"/>
</clipPath>
</defs>
</svg>
