<svg width="21" height="20" viewBox="0 0 21 20" fill="none" xmlns="http://www.w3.org/2000/svg">
<g clip-path="url(#clip0_1_1444)">
<path d="M2.53248 11.8121C3.43469 11.8121 4.16607 11.0807 4.16607 10.1785C4.16607 9.2763 3.43469 8.54492 2.53248 8.54492C1.63028 8.54492 0.898895 9.2763 0.898895 10.1785C0.898895 11.0807 1.63028 11.8121 2.53248 11.8121Z" fill="#787381"/>
<path d="M10.7005 11.8121C11.6027 11.8121 12.3341 11.0807 12.3341 10.1785C12.3341 9.2763 11.6027 8.54492 10.7005 8.54492C9.79834 8.54492 9.06696 9.2763 9.06696 10.1785C9.06696 11.0807 9.79834 11.8121 10.7005 11.8121Z" fill="#787381"/>
<path d="M18.8684 11.8121C19.7706 11.8121 20.502 11.0807 20.502 10.1785C20.502 9.2763 19.7706 8.54492 18.8684 8.54492C17.9662 8.54492 17.2348 9.2763 17.2348 10.1785C17.2348 11.0807 17.9662 11.8121 18.8684 11.8121Z" fill="#787381"/>
</g>
<defs>
<clipPath id="clip0_1_1444">
<rect width="19.6031" height="19.6031" fill="white" transform="translate(0.898895 0.376678)"/>
</clipPath>
</defs>
</svg>
