<svg width="21" height="20" viewBox="0 0 21 20" fill="none" xmlns="http://www.w3.org/2000/svg">
<g clip-path="url(#clip0_1_1294)">
<path d="M18.0509 4.9364H4.98216C4.28054 4.9364 3.61648 4.63256 3.15663 4.12043C3.60587 3.61891 4.25848 3.30282 4.98216 3.30282H19.6845C20.1361 3.30282 20.5012 2.93689 20.5012 2.48602C20.5012 2.03515 20.1361 1.66923 19.6845 1.66923H4.98216C2.727 1.66923 0.898193 3.49803 0.898193 5.7532V13.9211C0.898193 16.1763 2.727 18.0051 4.98216 18.0051H18.0509C19.4043 18.0051 20.5012 16.9082 20.5012 15.5547V7.38679C20.5012 6.03336 19.4043 4.9364 18.0509 4.9364ZM18.8677 15.5547C18.8677 16.0048 18.5017 16.3715 18.0509 16.3715H4.98216C3.63119 16.3715 2.53178 15.2721 2.53178 13.9211V5.75156C3.22932 6.2735 4.08696 6.56999 4.98216 6.56999H18.0509C18.5017 6.56999 18.8677 6.93673 18.8677 7.38679V15.5547ZM17.2341 11.4708C17.2341 11.9216 16.8681 12.2876 16.4173 12.2876C15.9664 12.2876 15.6005 11.9216 15.6005 11.4708C15.6005 11.0199 15.9664 10.654 16.4173 10.654C16.8681 10.654 17.2341 11.0199 17.2341 11.4708Z" fill="#2C8BFD"/>
</g>
<defs>
<clipPath id="clip0_1_1294">
<rect width="19.6031" height="19.6031" fill="white" transform="translate(0.898193 0.0356369)"/>
</clipPath>
</defs>
</svg>
